<svg width="126" height="29" viewBox="0 0 126 29" fill="none" xmlns="http://www.w3.org/2000/svg">
<g id="Logo">
<g id="Vector">
<path d="M0 15.2548C0 14.1502 0.895431 13.2548 2 13.2548H9.12803C10.2326 13.2548 11.128 14.1502 11.128 15.2548V20.8947C11.128 21.9993 10.2326 22.8947 9.12803 22.8947H2C0.895432 22.8947 0 21.9993 0 20.8947V15.2548Z" fill="#626262"/>
<path d="M13.601 15.2548C13.601 14.1502 14.4964 13.2548 15.601 13.2548H22.729C23.8336 13.2548 24.729 14.1502 24.729 15.2548V27C24.729 28.1046 23.8336 29 22.729 29H15.601C14.4964 29 13.601 28.1046 13.601 27V15.2548Z" fill="#626262"/>
<path d="M13.601 2C13.601 0.895428 14.4964 0 15.601 0H22.729C23.8336 0 24.729 0.895431 24.729 2V8.84493C24.729 9.9495 23.8336 10.8449 22.729 10.8449H15.601C14.4964 10.8449 13.601 9.9495 13.601 8.84493V2Z" fill="#626262"/>
<path d="M36.9565 14.4528H33.1037L33.0909 11.7947H36.3638C36.8792 11.7947 37.3001 11.7111 37.6266 11.544C37.9616 11.3684 38.2064 11.1135 38.3611 10.7791C38.5243 10.4364 38.6059 10.0227 38.6059 9.53787C38.6059 8.97783 38.5286 8.53063 38.3739 8.19628C38.2279 7.85357 37.9917 7.60281 37.6652 7.44399C37.3474 7.28517 36.9265 7.20576 36.4024 7.20576H34.3923V22.4146H30.6168V4.15899H36.4024C37.3302 4.15899 38.1635 4.25929 38.9022 4.4599C39.641 4.66051 40.2681 4.96979 40.7835 5.38773C41.299 5.79731 41.6941 6.31555 41.969 6.94246C42.2439 7.56101 42.3814 8.29659 42.3814 9.14918C42.3814 9.90147 42.2267 10.5953 41.9175 11.2305C41.6082 11.8658 41.1229 12.3882 40.4614 12.7978C39.7999 13.199 38.9452 13.4205 37.8972 13.4623L36.9565 14.4528ZM36.8148 22.4146H32.0342L33.5418 19.3803H36.8148C37.3216 19.3803 37.7254 19.2758 38.026 19.0669C38.3267 18.8579 38.5457 18.5779 38.6832 18.2268C38.8292 17.8674 38.9022 17.4578 38.9022 16.9981C38.9022 16.4798 38.8378 16.0285 38.709 15.644C38.5887 15.2595 38.3868 14.9669 38.1033 14.7663C37.8199 14.5573 37.4376 14.4528 36.9565 14.4528H33.7094L33.7351 11.7947H37.6781L38.5672 12.8479C39.5723 12.8145 40.3755 13.0026 40.9768 13.4122C41.5782 13.8134 42.0077 14.34 42.2654 14.992C42.5317 15.6356 42.6648 16.321 42.6648 17.0482C42.6648 18.2185 42.4372 19.2048 41.9819 20.0072C41.5352 20.8013 40.878 21.4032 40.0104 21.8127C39.1428 22.214 38.0776 22.4146 36.8148 22.4146Z" fill="#626262"/>
<path d="M48.5154 3.15593V22.4146H44.8946V3.15593H48.5154Z" fill="#626262"/>
<path d="M57.5874 19.1546V8.84826H61.2082V22.4146H57.8064L57.5874 19.1546ZM57.9997 16.3586L59.0048 16.3336C59.0048 17.2447 58.9146 18.0889 58.7342 18.8663C58.5538 19.6353 58.2832 20.304 57.9224 20.8724C57.5702 21.4408 57.1192 21.8838 56.5694 22.2014C56.0282 22.5107 55.3882 22.6653 54.6495 22.6653C54.0825 22.6653 53.5585 22.5734 53.0774 22.3895C52.6049 22.1972 52.1969 21.9005 51.8533 21.4993C51.5097 21.0897 51.2391 20.5673 51.0415 19.932C50.8525 19.2884 50.758 18.5194 50.758 17.625V8.84826H54.3789V17.6501C54.3789 18.0179 54.4089 18.3355 54.4691 18.603C54.5378 18.8621 54.6323 19.0752 54.7525 19.2424C54.8814 19.4096 55.0274 19.5308 55.1906 19.606C55.3539 19.6729 55.5386 19.7063 55.7447 19.7063C56.3117 19.7063 56.7584 19.5642 57.0848 19.28C57.4199 18.9875 57.6561 18.5904 57.7935 18.0889C57.931 17.579 57.9997 17.0023 57.9997 16.3586Z" fill="#626262"/>
<path d="M66.917 11.87V22.4146H63.3091V8.84826H66.7109L66.917 11.87ZM70.2029 8.74796L70.1513 12.2461C69.9881 12.2127 69.7905 12.1876 69.5586 12.1709C69.3352 12.1542 69.1377 12.1458 68.9659 12.1458C68.5621 12.1458 68.2185 12.2085 67.935 12.3339C67.6515 12.4509 67.4153 12.6306 67.2263 12.873C67.0459 13.1071 66.9085 13.3996 66.814 13.7507C66.7195 14.1018 66.6636 14.4988 66.6464 14.9418L65.9635 14.6911C65.9635 13.805 66.0322 12.9942 66.1697 12.2586C66.3157 11.5147 66.5305 10.8711 66.814 10.3278C67.0974 9.77609 67.4368 9.34979 67.8319 9.04888C68.2357 8.74796 68.691 8.5975 69.1978 8.5975C69.3696 8.5975 69.55 8.61422 69.739 8.64765C69.9366 8.67273 70.0912 8.70617 70.2029 8.74796Z" fill="#626262"/>
<path d="M75.4736 4.15899V22.4146H71.6981V4.15899H75.4736ZM81.3494 11.9201V14.9544H74.5201V11.9201H81.3494ZM82.071 4.15899V7.20576H74.5201V4.15899H82.071Z" fill="#626262"/>
<path d="M82.8704 16.0953V15.18C82.8704 14.1185 82.9993 13.1781 83.257 12.359C83.5233 11.5398 83.9013 10.8544 84.3909 10.3027C84.8806 9.74265 85.469 9.32054 86.1562 9.03634C86.8521 8.74378 87.6295 8.5975 88.4885 8.5975C89.3562 8.5975 90.1336 8.74378 90.8208 9.03634C91.5166 9.32054 92.1094 9.74265 92.599 10.3027C93.0973 10.8544 93.4796 11.5398 93.7458 12.359C94.0122 13.1781 94.1453 14.1185 94.1453 15.18V16.0953C94.1453 17.1485 94.0122 18.0847 93.7458 18.9039C93.4796 19.723 93.0973 20.4126 92.599 20.9727C92.1094 21.5327 91.5209 21.9548 90.8337 22.239C90.1465 22.5232 89.3733 22.6653 88.5143 22.6653C87.6553 22.6653 86.8778 22.5232 86.182 22.239C85.4948 21.9548 84.902 21.5327 84.4038 20.9727C83.9056 20.4126 83.5233 19.723 83.257 18.9039C82.9993 18.0847 82.8704 17.1485 82.8704 16.0953ZM86.4784 15.18V16.0953C86.4784 16.7222 86.5213 17.2656 86.6072 17.7253C86.7017 18.185 86.8349 18.5654 87.0067 18.8663C87.1871 19.1672 87.4018 19.3887 87.651 19.5308C87.9001 19.6729 88.1879 19.7439 88.5143 19.7439C88.8407 19.7439 89.1328 19.6729 89.3905 19.5308C89.6482 19.3887 89.8587 19.1672 90.0219 18.8663C90.1937 18.5654 90.3183 18.185 90.3956 17.7253C90.4815 17.2656 90.5244 16.7222 90.5244 16.0953V15.18C90.5244 14.5699 90.4772 14.0349 90.3827 13.5752C90.2882 13.1071 90.1551 12.7267 89.9833 12.4342C89.8114 12.1333 89.5967 11.9076 89.339 11.7571C89.0899 11.5983 88.8064 11.5189 88.4885 11.5189C88.1707 11.5189 87.8872 11.5983 87.6381 11.7571C87.3976 11.9076 87.1871 12.1333 87.0067 12.4342C86.8349 12.7267 86.7017 13.1071 86.6072 13.5752C86.5213 14.0349 86.4784 14.5699 86.4784 15.18Z" fill="#626262"/>
<path d="M99.5062 11.87V22.4146H95.8983V8.84826H99.3L99.5062 11.87ZM102.792 8.74796L102.74 12.2461C102.577 12.2127 102.38 12.1876 102.148 12.1709C101.924 12.1542 101.727 12.1458 101.555 12.1458C101.151 12.1458 100.808 12.2085 100.524 12.3339C100.241 12.4509 100.004 12.6306 99.8155 12.873C99.6351 13.1071 99.4976 13.3996 99.4031 13.7507C99.3086 14.1018 99.2528 14.4988 99.2356 14.9418L98.5527 14.6911C98.5527 13.805 98.6214 12.9942 98.7589 12.2586C98.9049 11.5147 99.1197 10.8711 99.4031 10.3278C99.6866 9.77609 100.026 9.34979 100.421 9.04888C100.825 8.74796 101.28 8.5975 101.787 8.5975C101.959 8.5975 102.139 8.61422 102.328 8.64765C102.526 8.67273 102.68 8.70617 102.792 8.74796Z" fill="#626262"/>
<path d="M108.887 19.7439C109.222 19.7439 109.51 19.6771 109.751 19.5433C110 19.4096 110.189 19.1923 110.318 18.8913C110.447 18.5904 110.515 18.2017 110.524 17.7253H113.913C113.913 18.7451 113.689 19.6269 113.243 20.3708C112.805 21.1064 112.212 21.6748 111.465 22.076C110.726 22.4689 109.888 22.6653 108.952 22.6653C108.016 22.6653 107.199 22.5191 106.504 22.2265C105.808 21.9339 105.232 21.5076 104.777 20.9476C104.33 20.3876 103.991 19.7063 103.759 18.9039C103.536 18.0931 103.424 17.1653 103.424 16.1204V15.1299C103.424 14.1018 103.536 13.1823 103.759 12.3715C103.991 11.5607 104.33 10.8753 104.777 10.3152C105.232 9.75519 105.803 9.32889 106.491 9.03634C107.187 8.74378 108.003 8.5975 108.939 8.5975C109.944 8.5975 110.816 8.80229 111.555 9.21187C112.294 9.61309 112.869 10.2066 113.281 10.9923C113.702 11.778 113.913 12.7476 113.913 13.9012H110.524C110.515 13.3829 110.451 12.9524 110.331 12.6097C110.219 12.2586 110.043 11.9912 109.802 11.8073C109.57 11.615 109.261 11.5189 108.875 11.5189C108.471 11.5189 108.144 11.6025 107.895 11.7697C107.655 11.9285 107.47 12.1625 107.341 12.4718C107.221 12.7727 107.139 13.1489 107.096 13.6002C107.053 14.0516 107.032 14.5615 107.032 15.1299V16.1204C107.032 16.7306 107.049 17.2614 107.083 17.7128C107.126 18.1558 107.208 18.5319 107.328 18.8412C107.457 19.1421 107.642 19.3678 107.882 19.5183C108.131 19.6687 108.467 19.7439 108.887 19.7439Z" fill="#626262"/>
<path d="M121.078 22.6653C120.124 22.6653 119.278 22.5232 118.539 22.239C117.809 21.9548 117.191 21.5453 116.684 21.0103C116.177 20.467 115.79 19.8108 115.524 19.0418C115.258 18.2728 115.125 17.3951 115.125 16.4088V15.2929C115.125 14.1895 115.253 13.2241 115.511 12.3966C115.769 11.5607 116.134 10.8586 116.606 10.2902C117.079 9.72176 117.659 9.29964 118.346 9.0238C119.042 8.7396 119.828 8.5975 120.704 8.5975C121.58 8.5975 122.349 8.7396 123.011 9.0238C123.681 9.29964 124.235 9.71758 124.673 10.2776C125.111 10.8293 125.442 11.5147 125.665 12.3339C125.888 13.153 126 14.1059 126 15.1926V16.7975H116.658V14.3274H122.456V14.014C122.456 13.4623 122.396 13.0026 122.276 12.6348C122.156 12.2586 121.967 11.9786 121.709 11.7947C121.451 11.6108 121.108 11.5189 120.678 11.5189C120.317 11.5189 120.013 11.5899 119.763 11.732C119.514 11.8741 119.317 12.0957 119.171 12.3966C119.025 12.6975 118.917 13.0903 118.849 13.5752C118.78 14.0516 118.745 14.6242 118.745 15.2929V16.4088C118.745 17.0357 118.801 17.5623 118.913 17.9886C119.025 18.4065 119.188 18.7492 119.403 19.0167C119.626 19.2758 119.897 19.4639 120.214 19.5809C120.532 19.6896 120.902 19.7439 121.323 19.7439C121.958 19.7439 122.529 19.6353 123.036 19.4179C123.552 19.1923 123.99 18.8872 124.351 18.5027L125.794 20.6342C125.545 20.9518 125.201 21.2694 124.763 21.5871C124.325 21.9047 123.801 22.1638 123.191 22.3644C122.581 22.565 121.877 22.6653 121.078 22.6653Z" fill="#626262"/>
</g>
</g>
</svg>
